<?xml version="1.0"?>
<svg xmlns="http://www.w3.org/2000/svg" xmlns:xlink="http://www.w3.org/1999/xlink" xmlns:svgjs="http://svgjs.com/svgjs" version="1.1" width="512" height="512" x="0" y="0" viewBox="0 0 512 512" style="enable-background:new 0 0 512 512" xml:space="preserve" class=""><g>
<g xmlns="http://www.w3.org/2000/svg">
	<g>
		<g>
			<path d="M455.905,317.622c-3.06-45.411-15.042-88.873-35.614-129.181c-5.432-10.644-9.612-21.832-12.423-33.255     c-0.054-0.217-0.117-0.431-0.189-0.641c-1.561-4.552-2.7-9.269-3.387-14.02c-0.573-3.959-3.078-7.341-6.701-9.046     c-3.612-1.697-7.796-1.474-11.195,0.599c-4.099,2.499-8.812,3.82-13.631,3.82c-14.529,0-26.35-11.876-26.35-26.475v-97.52     C346.415,5.34,341.082,0,334.527,0c-41.297,0-81.552,14.504-113.349,40.839c-31.364,25.978-51.941,56.575-60.046,96.331     c-0.828,4.059,1.792,8.02,5.851,8.847c4.06,0.831,8.021-1.792,8.848-5.851c15.241-74.75,79.717-123.679,155.581-125.136v94.392     c0,22.87,18.55,41.475,41.352,41.475c6.044,0,11.986-1.324,17.418-3.857c0.792,4.079,1.863,8.116,3.196,12.05     c3.085,12.431,7.643,24.597,13.549,36.168c19.644,38.489,31.086,79.997,34.009,123.371c0.479,7.111-1.002,39.783-3.466,46.968     c-0.072,0.21-0.135,0.424-0.188,0.641c-18.413,74.815-93.087,129.368-178.284,130.729c-0.032-0.001-0.064-0.005-0.096-0.005     c-0.059,0-0.118,0.001-0.177,0.002c-1.018,0.025-2.034,0.034-3.049,0.035c-0.584-0.001-1.165-0.013-1.748-0.018     c-33.669-0.42-65.149-13.743-89.095-37.776c-24.855-24.945-38.226-58.116-37.651-93.401c0.067-4.142-3.236-7.554-7.378-7.621     c-0.042-0.001-0.083-0.001-0.125-0.001c-4.086,0-7.431,3.278-7.498,7.378c-0.638,39.17,14.135,76.006,41.601,103.797     c-39.453-23.345-68.938-59.839-79.59-103.119c-0.053-0.217-0.116-0.431-0.188-0.641c-2.419-7.055-3.677-46.243-2.686-56.455     c3.879-39.969,15.059-78.284,33.229-113.884c5.907-11.577,10.466-23.747,13.552-36.182c1.359-4.102,2.622-10.462,3.839-19.344     c16.139,10.333,28.45,25.016,34.921,41.764c1.492,3.862,5.836,5.783,9.7,4.293c3.864-1.492,5.787-5.835,4.294-9.699     c-8.234-21.311-24.383-39.71-45.473-51.808c-3.461-1.985-7.658-2.104-11.227-0.321c-3.573,1.786-5.998,5.22-6.487,9.187     c-1.611,13.055-2.994,18.84-3.87,21.395c-0.072,0.211-0.135,0.425-0.188,0.642c-2.811,11.422-6.991,22.61-12.423,33.255     c-19.028,37.282-30.736,77.404-34.798,119.253c-0.988,10.178-0.154,51.424,3.307,62.401     c9.847,39.722,34.614,75.758,69.764,101.501c35.333,25.877,79.812,40.201,125.342,40.395c0.279,0.001,0.556,0.01,0.835,0.01     c0.031,0,0.062-0.001,0.093-0.001c0.003,0,0.007,0,0.01,0c45.856,0,90.704-14.349,126.28-40.404     c35.146-25.74,59.911-61.771,69.761-101.487C455.277,359.207,456.347,324.179,455.905,317.622z" fill="#1d4ed8" data-original="#000000"/>
			<path d="M364.081,450.923c1.291,0.876,2.756,1.296,4.206,1.296c2.402,0,4.762-1.151,6.213-3.289     c38.738-57.059,31.491-133.965-17.23-182.864l-96.219-96.57c-1.408-1.413-3.32-2.207-5.314-2.207     c-1.994,0-3.906,0.794-5.314,2.207l-96.219,96.57c-19.557,19.628-32.97,44.28-38.789,71.292     c-0.872,4.049,1.704,8.039,5.754,8.911c4.049,0.867,8.04-1.704,8.912-5.753c5.212-24.193,17.229-46.277,34.751-63.864     l90.905-91.236l90.904,91.236c43.659,43.818,50.155,112.728,15.446,163.854C359.761,443.933,360.654,448.597,364.081,450.923z" fill="#1d4ed8" data-original="#000000"/>
			<path d="M258.216,325.205l-2.431,2.439c0,0-0.002,0-0.004,0c-0.019,0-0.099-0.004-0.097,0l-2.43-2.438     c-9.369-9.403-21.827-14.582-35.08-14.582c-13.253,0-25.712,5.179-35.08,14.582c-17.272,17.334-19.975,44.719-6.427,65.114     c0.027,0.04,0.055,0.08,0.082,0.12c15.66,22.611,35.331,41.584,58.468,56.393l12.398,7.936c2.467,1.578,5.294,2.367,8.121,2.367     c2.828,0,5.656-0.789,8.123-2.368l12.397-7.935c23.136-14.808,42.807-33.782,58.468-56.393c0.028-0.04,0.055-0.08,0.082-0.12     c13.547-20.396,10.844-47.781-6.427-65.114c-9.369-9.403-21.828-14.582-35.081-14.582     C280.046,310.624,267.587,315.803,258.216,325.205z M317.751,335.792c12.244,12.288,14.172,31.695,4.596,46.171     c-14.517,20.943-32.745,38.518-54.179,52.238l-12.466,7.935l-12.396-7.935c-21.435-13.72-39.663-31.296-54.18-52.239     c-9.575-14.476-7.646-33.881,4.598-46.17c6.533-6.557,15.217-10.168,24.452-10.168c9.236,0,17.919,3.611,24.453,10.169     l2.43,2.438c2.851,2.862,6.643,4.438,10.679,4.438c4.036,0,7.828-1.577,10.678-4.437l2.431-2.44     c6.533-6.557,15.217-10.168,24.452-10.168S311.218,329.235,317.751,335.792z" fill="#1d4ed8" data-original="#000000"/>
		</g>
	</g>
</g>
<g xmlns="http://www.w3.org/2000/svg">
</g>
<g xmlns="http://www.w3.org/2000/svg">
</g>
<g xmlns="http://www.w3.org/2000/svg">
</g>
<g xmlns="http://www.w3.org/2000/svg">
</g>
<g xmlns="http://www.w3.org/2000/svg">
</g>
<g xmlns="http://www.w3.org/2000/svg">
</g>
<g xmlns="http://www.w3.org/2000/svg">
</g>
<g xmlns="http://www.w3.org/2000/svg">
</g>
<g xmlns="http://www.w3.org/2000/svg">
</g>
<g xmlns="http://www.w3.org/2000/svg">
</g>
<g xmlns="http://www.w3.org/2000/svg">
</g>
<g xmlns="http://www.w3.org/2000/svg">
</g>
<g xmlns="http://www.w3.org/2000/svg">
</g>
<g xmlns="http://www.w3.org/2000/svg">
</g>
<g xmlns="http://www.w3.org/2000/svg">
</g>
</g></svg>
