<?xml version="1.0"?>
<svg xmlns="http://www.w3.org/2000/svg" xmlns:xlink="http://www.w3.org/1999/xlink" xmlns:svgjs="http://svgjs.com/svgjs" version="1.1" width="512" height="512" x="0" y="0" viewBox="0 0 60 60" style="enable-background:new 0 0 512 512" xml:space="preserve" class=""><g><!-- Generator: Sketch 51.3 (57544) - http://www.bohemiancoding.com/sketch --><title xmlns="http://www.w3.org/2000/svg">010 - Idea</title><desc xmlns="http://www.w3.org/2000/svg">Created with Sketch.</desc><defs xmlns="http://www.w3.org/2000/svg"/><g xmlns="http://www.w3.org/2000/svg" id="Page-1" stroke="none" stroke-width="1" fill="none" fill-rule="evenodd"><g id="010---Idea" transform="translate(-1.000000, -1.000000)" fill="#000000" fill-rule="nonzero"><path d="M2.472,38.391 C2.80086084,38.6198362 3.1484244,38.8205466 3.511,38.991 C3.943,39.212 4.667,39.582 4.718,39.841 C4.78091334,40.1828671 4.73980788,40.535747 4.6,40.854 C4.451,41.174 4.295,41.449 4.16,41.686 C3.794,42.333 3.181,43.417 4.105,44.172 C4.321,44.372 4.694,44.661 5.034,44.922 C4.78370505,45.359639 4.67048978,45.8623148 4.709,46.365 C4.76186098,46.7607003 4.97661897,47.1166988 5.302,47.348 C5.524,47.505 5.761,47.641 5.995,47.774 C6.586,48.111 6.817,48.268 6.895,48.581 C6.95056021,48.9834802 6.91641128,49.3932674 6.795,49.781 C6.736,50.048 6.679,50.316 6.645,50.581 C6.54569822,51.4923539 6.65829272,52.4143284 6.974,53.275 C7.42370729,54.8635039 8.86033341,55.9703193 10.511,56 C10.7865929,55.9991845 11.0613714,55.9700312 11.331,55.913 C14.1877778,55.2358183 17.0028445,54.3934018 19.762,53.39 C22.015,54.712 23.438,58.732 23.809,60.241 C23.9197719,60.6870872 24.3203652,61.0002183 24.78,61 L49.88,60.93 C50.198095,60.9293833 50.4969218,60.7774667 50.6848608,60.5208273 C50.8727998,60.2641879 50.9274293,59.9334437 50.832,59.63 C50.584758,58.9524505 50.2437748,58.3128965 49.819,57.73 C49.5792082,57.3843183 49.3630492,57.0228282 49.172,56.648 C48.7193866,55.7320866 48.3418152,54.7809676 48.043,53.804 C47.4796807,51.892495 47.0868117,49.9348428 46.869,47.954 C46.8362198,47.5904715 46.6079772,47.2736806 46.2735229,47.1275034 C45.9390686,46.9813261 45.5515383,47.028986 45.2624697,47.2518466 C44.9734011,47.4747071 44.8287194,47.8373617 44.885,48.198 C45.1162532,50.2975152 45.53356,52.3723367 46.132,54.398 C46.4610482,55.4729292 46.876054,56.5196399 47.373,57.528 C47.6011562,57.9808684 47.8600969,58.4175592 48.148,58.835 L48.215,58.935 L25.536,59 C24.8721602,56.6278229 23.6672676,54.4419012 22.016,52.614 L22.916,52.299 C23.586,52.065 24.091,51.889 24.35,51.806 C28.634,50.451 30.776,48.5 30.718,46.006 C30.7188193,45.7395248 30.6104239,45.4843502 30.4180704,45.2999327 C30.2257169,45.1155152 29.9662044,45.0179608 29.7,45.03 C29.1480455,45.043101 28.711146,45.5010397 28.724,46.053 C28.748,47.082 27.905,48.583 23.748,49.898 C23.477,49.985 22.955,50.167 22.262,50.409 C21.519,50.669 20.574,50.999 19.532,51.353 L19.525,51.353 C16.7107997,52.3845725 13.8393482,53.2526858 10.925,53.953 C9.99247911,54.1327213 9.08430877,53.5444846 8.867,52.62 C8.65336419,52.0511056 8.5729723,51.4408114 8.632,50.836 C8.658,50.626 8.706,50.418 8.752,50.209 C8.95576742,49.5173075 8.98565126,48.7860121 8.839,48.08 C8.54716334,47.1627356 7.87192053,46.4170866 6.988,46.036 L6.78,45.917 C6.88797779,45.6989963 7.01691908,45.4920204 7.165,45.299 C7.33275906,45.0864363 7.40714209,44.8149259 7.3711438,44.5465408 C7.33514552,44.2781557 7.19184383,44.0358431 6.974,43.875 C6.734,43.699 6.168,43.275 5.754,42.941 C5.802,42.854 5.854,42.758 5.904,42.671 C6.061,42.396 6.24,42.076 6.415,41.706 C6.73144627,41.0050454 6.82465982,40.2237273 6.682,39.468 C6.442,38.248 5.274,37.65 4.421,37.214 C4.13416022,37.0782339 3.85919867,36.9186759 3.599,36.737 C3.38457095,36.5929247 3.18373805,36.4295806 2.999,36.249 C2.999,36.098 3.161,35.732 3.923,34.803 C5.71384484,32.498386 7.24854751,30.0057096 8.5,27.369 C8.73611116,26.9557612 8.86887835,26.4915906 8.887,26.016 C8.78370832,25.0108401 8.25104392,24.0993679 7.426,23.516 C7.021,23.145 6.64,22.795 6.596,22.472 C6.60268284,22.2350157 6.65567877,22.0016297 6.752,21.785 C6.915,21.356 7.103,20.936 7.292,20.515 C7.70205054,19.6694994 8.02956792,18.786408 8.27,17.878 L8.37,17.452 C8.58206913,16.4522045 8.85524847,15.4663544 9.188,14.5 C9.97629737,12.324256 11.1967986,10.3305666 12.776,8.639 C14.689,6.615 17.7,5.183 21.74,4.38 C24.8302616,3.70160137 27.9659304,3.24973351 31.122,3.028 C32.6960458,2.94277949 34.2746881,3.03232644 35.829,3.295 C36.3662791,3.37553169 36.8695693,3.01236779 36.9624952,2.47709308 C37.0554211,1.94181837 36.7039844,1.43027041 36.171,1.325 C34.4695916,1.03584978 32.741255,0.93724101 31.018,1.031 C27.7640828,1.25668862 24.5310865,1.72059835 21.345,2.419 C16.836,3.319 13.559,4.9 11.322,7.264 C9.55741114,9.15217091 8.19304573,11.3778111 7.311,13.807 C6.95086895,14.8522819 6.65498362,15.9186045 6.425,17 L6.325,17.422 C6.1115707,18.2063052 5.82532664,18.9689531 5.47,19.7 C5.27,20.156 5.062,20.612 4.883,21.084 C4.65276773,21.6097458 4.56151568,22.1858389 4.618,22.757 C4.81979497,23.6523879 5.33739273,24.4451147 6.076,24.99 C6.565,25.439 6.886,25.755 6.89,26.03 C6.85380114,26.1823392 6.7962306,26.3287906 6.719,26.465 C5.52099974,28.9889269 4.05238629,31.3752561 2.339,33.582 C1.616,34.463 0.859,35.49 1.02,36.517 C1.23180829,37.311752 1.75532747,37.9874235 2.472,38.391 Z" id="Shape" fill="#1d4ed8" data-original="#000000" class=""/><path d="M12.167,18.793 L12.267,18.348 C12.4422745,17.5166167 12.6649717,16.6959424 12.934,15.89 C13.5362565,14.2205007 14.4695935,12.6898825 15.678,11.39 C16.9740184,10.1680016 18.560379,9.29686276 20.287,8.859 C20.6356132,8.76076066 20.9038574,8.48169775 20.9882433,8.12947458 C21.0726292,7.7772514 20.9599648,7.40693017 20.6937164,7.1613819 C20.4274681,6.91583364 20.0492577,6.83344433 19.705,6.946 C17.6443921,7.48150189 15.7566426,8.53920641 14.224,10.017 C12.8313939,11.5140375 11.7555448,13.2769606 11.061,15.2 C10.7609653,16.0876495 10.5135358,16.9922196 10.32,17.909 L10.22,18.342 C10.0952009,18.8796006 10.4295239,19.4166657 10.967,19.542 C11.0413988,19.5594609 11.1175799,19.5681865 11.194,19.568 C11.6590938,19.5673679 12.0623542,19.2461687 12.167,18.793 Z" id="Shape" fill="#1d4ed8" data-original="#000000" class=""/><circle id="Oval" cx="10" cy="22" r="1" fill="#1d4ed8" data-original="#000000" class=""/><path d="M28,21.21 C27.9315063,24.6191785 29.136268,27.9314708 31.379,30.5 C32.0849236,31.2334657 32.8546161,31.9027636 33.679,32.5 C35.142,33.631 36.528,34.712 36.896,36.216 C35.7535128,36.6681633 35.0022442,37.7712918 35,39 L35,41 C35.0052514,42.2667854 35.8056491,43.3937454 37,43.816 L37,44 C37,46.209139 38.790861,48 41,48 C43.209139,48 45,46.209139 45,44 L45,43.816 C46.1943509,43.3937454 46.9947486,42.2667854 47,41 L47,39 C46.9971059,37.7702998 46.2440591,36.6668879 45.1,36.216 C45.467,34.716 46.854,33.631 48.317,32.5 C49.1411778,31.9025042 49.9108481,31.2332256 50.617,30.5 C52.8605892,27.9317144 54.0667144,24.6195942 54,21.21 C53.9721024,14.0073776 48.2012507,8.14330443 41,8 C33.7987493,8.14330443 28.0278976,14.0073776 28,21.21 Z M38,23 L37,23 C36.4477153,23 36,22.5522847 36,22 C36,21.4477153 36.4477153,21 37,21 C37.5522847,21 38,21.4477153 38,22 L38,23 Z M42,36 L40,36 L40,25 L42,25 L42,36 Z M41,46 C39.8954305,46 39,45.1045695 39,44 L43,44 C43,45.1045695 42.1045695,46 41,46 Z M45,41 C45,41.5522847 44.5522847,42 44,42 L38,42 C37.4477153,42 37,41.5522847 37,41 L37,39 C37,38.4477153 37.4477153,38 38,38 L44,38 C44.5522847,38 45,38.4477153 45,39 L45,41 Z M52,21.241 C52.0622371,24.1446194 51.0416699,26.9674874 49.137,29.16 C48.509758,29.8031215 47.8282342,30.390965 47.1,30.917 C45.9209331,31.738395 44.8753526,32.7364184 44,33.876 L44,25 L45,25 C46.6568542,25 48,23.6568542 48,22 C48,20.3431458 46.6568542,19 45,19 C43.3431458,19 42,20.3431458 42,22 L42,23 L40,23 L40,22 C40,20.3431458 38.6568542,19 37,19 C35.3431458,19 34,20.3431458 34,22 C34,23.6568542 35.3431458,25 37,25 L38,25 L38,33.876 C37.1262995,32.7369645 36.0823985,31.7392717 34.905,30.918 C34.1764592,30.3915917 33.4946066,29.8034185 32.867,29.16 C30.9603793,26.9683744 29.9382903,24.1452412 30,21.241 C30.1,15.147 35.132,10 41,10 C46.868,10 51.905,15.147 52,21.241 Z M44,23 L44,22 C44,21.4477153 44.4477153,21 45,21 C45.5522847,21 46,21.4477153 46,22 C46,22.5522847 45.5522847,23 45,23 L44,23 Z" id="Shape" fill="#1d4ed8" data-original="#000000" class=""/><path d="M57,22 L60,22 C60.5522847,22 61,21.5522847 61,21 C61,20.4477153 60.5522847,20 60,20 L57,20 C56.4477153,20 56,20.4477153 56,21 C56,21.5522847 56.4477153,22 57,22 Z" id="Shape" fill="#1d4ed8" data-original="#000000" class=""/><path d="M52.313,10.687 C52.5785413,10.6872088 52.8332623,10.5817946 53.021,10.394 L55.142,8.272 C55.4019566,8.02092553 55.5062126,7.64912211 55.4146972,7.29949268 C55.3231817,6.94986324 55.0501368,6.67681828 54.7005073,6.58530284 C54.3508779,6.4937874 53.9790745,6.59804342 53.728,6.858 L51.606,8.979 C51.3193761,9.26489995 51.2334066,9.69540717 51.3882414,10.0694636 C51.5430763,10.44352 51.9081643,10.687319 52.313,10.687 Z" id="Shape" fill="#1d4ed8" data-original="#000000" class=""/><path d="M41,6 C41.5522847,6 42,5.55228475 42,5 L42,2 C42,1.44771525 41.5522847,1 41,1 C40.4477153,1 40,1.44771525 40,2 L40,5 C40,5.55228475 40.4477153,6 41,6 Z" id="Shape" fill="#1d4ed8" data-original="#000000" class=""/><path d="M30.394,10.394 C30.581777,10.2064317 30.6872867,9.95190925 30.6872867,9.6865 C30.6872867,9.42109075 30.581777,9.16656826 30.394,8.979 L28.272,6.858 C28.0209255,6.59804342 27.6491221,6.4937874 27.2994927,6.58530284 C26.9498632,6.67681828 26.6768183,6.94986324 26.5853028,7.29949268 C26.4937874,7.64912211 26.5980434,8.02092553 26.858,8.272 L28.979,10.394 C29.1665683,10.581777 29.4210908,10.6872867 29.6865,10.6872867 C29.9519092,10.6872867 30.2064317,10.581777 30.394,10.394 Z" id="Shape" fill="#1d4ed8" data-original="#000000" class=""/><path d="M22,20 C21.4477153,20 21,20.4477153 21,21 C21,21.5522847 21.4477153,22 22,22 L25,22 C25.5522847,22 26,21.5522847 26,21 C26,20.4477153 25.5522847,20 25,20 L22,20 Z" id="Shape" fill="#1d4ed8" data-original="#000000" class=""/></g></g></g></svg>
