<?xml version="1.0"?>
<svg xmlns="http://www.w3.org/2000/svg" xmlns:xlink="http://www.w3.org/1999/xlink" xmlns:svgjs="http://svgjs.com/svgjs" version="1.1" width="512" height="512" x="0" y="0" viewBox="0 0 32 32" style="enable-background:new 0 0 512 512" xml:space="preserve" class=""><g><g xmlns="http://www.w3.org/2000/svg" id="Arm_x2C__muscle_x2C__power_x2C__strength_x2C__strong_1_"><g><g><g><path d="m30.563 31c-.038 0-.076-.004-.114-.013-1.956-.454-3.16-1.838-4.222-3.059-.9-1.034-1.677-1.928-2.664-1.928-.276 0-.5-.224-.5-.5s.224-.5.5-.5c1.443 0 2.403 1.104 3.419 2.272 1.009 1.16 2.053 2.36 3.694 2.741.269.062.436.331.374.6-.054.231-.26.387-.487.387z" fill="#1d4ed8" data-original="#000000" class=""/></g></g><g><g><path d="m17.435 25.499c-1.769 0-3.408-.515-5.134-1.573-.235-.144-.31-.452-.165-.688.145-.235.452-.31.688-.165 2.466 1.511 4.737 1.793 7.597.947.264-.08.543.073.622.337.078.265-.073.543-.337.622-1.164.345-2.24.52-3.271.52z" fill="#1d4ed8" data-original="#000000" class=""/></g></g><g><g><path d="m20.598 17.858c2.827-2.385 7.183-3.387 10.134-2.329.26.093.395.379.302.64-.094.26-.379.393-.64.302-2.596-.932-6.617.014-9.151 2.152-.095.079-.857-.587-.645-.765z" fill="#1d4ed8" data-original="#000000" class=""/></g></g><g><g><path d="m9.063 21.5c-.158 0-.314-.075-.411-.215-.158-.227-.102-.538.125-.696l.298-.207c4.359-3.031 8.125-5.647 14.276-1.291.225.16.279.472.119.697s-.472.279-.697.119c-5.579-3.953-8.745-1.752-13.127 1.295l-.298.208c-.087.061-.187.09-.285.09z" fill="#1d4ed8" data-original="#000000" class=""/></g></g><g><g><path d="m10.66 20.394c-.053 0-.108-.008-.161-.027-.262-.089-.401-.373-.312-.634.762-2.236 1.077-4.758 1.354-6.983.3-2.4.559-4.473 1.292-5.786.134-.242.438-.328.68-.193.241.134.328.439.193.68-.638 1.143-.886 3.126-1.172 5.422-.284 2.273-.605 4.849-1.4 7.182-.072.208-.266.339-.474.339z" fill="#1d4ed8" data-original="#000000" class=""/></g></g><g><g><path d="m16.063 30.5c-5.989 0-11.759-3.654-13.932-5.03-.93-.589-1.284-1.743-.946-3.087.052-.207.081-.634.115-1.127.098-1.429.263-3.821 1.313-5.975 1.102-2.26 3.06-5.009 4.953-7.667 1.295-1.818 2.518-3.535 3.318-4.898.622-1.059 1.773-1.716 3.005-1.716h5.485c.561 0 1.07.31 1.329.808l1.49 2.862c.285.546.21 1.201-.191 1.669l-.93 1.084c-1.138 1.328-3.108 1.607-4.581.648-.779-.506-2.482-1.779-3.156-2.388-.205-.185-.221-.501-.036-.706.185-.206.501-.221.706-.036.632.57 2.296 1.814 3.031 2.292 1.054.688 2.463.489 3.276-.46l.93-1.084c.133-.156.158-.375.063-.556l-1.491-2.863c-.085-.167-.254-.27-.44-.27h-5.485c-.878 0-1.699.468-2.142 1.221-.823 1.401-2.058 3.136-3.366 4.972-1.87 2.625-3.803 5.34-4.869 7.526-.964 1.978-1.114 4.161-1.214 5.604-.04.586-.069 1.009-.143 1.303-.085.339-.3 1.485.511 1.999 2.105 1.333 7.698 4.875 13.396 4.875 5.409 0 10.237-2.262 10.286-2.285.25-.118.547-.012.666.237s.012.548-.237.666c-.205.097-5.083 2.382-10.714 2.382z" fill="#1d4ed8" data-original="#000000" class=""/></g></g></g></g></g></svg>
