<?xml version="1.0"?>
<svg xmlns="http://www.w3.org/2000/svg" xmlns:xlink="http://www.w3.org/1999/xlink" xmlns:svgjs="http://svgjs.com/svgjs" version="1.1" width="512" height="512" x="0" y="0" viewBox="0 0 511.575 511.575" style="enable-background:new 0 0 512 512" xml:space="preserve" class=""><g><g xmlns="http://www.w3.org/2000/svg"><path d="m486.608 29.47c-16.672-18.729-40.615-29.47-65.69-29.47h-330.261c-25.074 0-49.018 10.741-65.69 29.47s-24.569 43.754-21.666 68.659l29.931 256.76c.479 4.114 4.201 7.054 8.317 6.581 4.114-.48 7.061-4.204 6.581-8.318l-29.93-256.759c-2.407-20.658 4.143-41.416 17.972-56.95 13.828-15.534 33.687-24.443 54.485-24.443h330.262c20.798 0 40.657 8.909 54.485 24.443 13.829 15.534 20.379 36.292 17.972 56.95l-41.729 357.966c-2.806 24.067-23.193 42.216-47.424 42.216h-296.871c-24.23 0-44.618-18.149-47.424-42.216l-8.072-69.251c-.48-4.115-4.204-7.057-8.317-6.582-4.114.479-7.061 4.204-6.581 8.318l8.072 69.251c3.687 31.629 30.479 55.48 62.322 55.48h296.871c31.843 0 58.636-23.851 62.322-55.48l41.729-357.966c2.903-24.905-4.994-49.931-21.666-68.659z" fill="#1d4ed8" data-original="#000000" class=""/><path d="m143.652 40h-52.371c-13.746 0-26.811 5.617-35.845 15.412-9.644 10.458-14.049 23.984-12.403 38.086l42.057 360.788c1.148 9.856 9.497 17.289 19.421 17.289h57.808c5.683 0 11.073-2.465 14.789-6.762l20.178-23.33c8.376-9.685 20.524-15.24 33.329-15.24h50.348c12.805 0 24.953 5.555 33.329 15.24l20.177 23.329c3.717 4.298 9.107 6.763 14.79 6.763h57.808c9.924 0 18.272-7.433 19.421-17.289l10.36-88.878c.479-4.114-2.467-7.838-6.581-8.318-4.114-.476-7.838 2.467-8.317 6.582l-10.36 88.878c-.268 2.295-2.212 4.025-4.522 4.025h-57.808c-1.323 0-2.578-.574-3.443-1.575l-20.178-23.33c-11.228-12.982-27.511-20.428-44.675-20.428h-50.348c-17.164 0-33.447 7.445-44.675 20.427l-20.179 23.331c-.864 1-2.119 1.574-3.442 1.574h-57.81c-2.311 0-4.255-1.73-4.522-4.025l-42.057-360.788c-1.13-9.69 1.899-18.988 8.531-26.179 6.203-6.725 15.248-10.582 24.819-10.582h52.371c4.143 0 7.5-3.358 7.5-7.5s-3.358-7.5-7.5-7.5z" fill="#1d4ed8" data-original="#000000" class=""/><path d="m425.872 330.012c-.479 4.114 2.467 7.838 6.581 8.318.295.034.588.051.878.051 3.753 0 6.994-2.813 7.439-6.632l27.772-238.25c1.645-14.104-2.761-27.629-12.404-38.087-9.033-9.795-22.097-15.412-35.844-15.412h-53.371c-4.143 0-7.5 3.358-7.5 7.5s3.357 7.5 7.5 7.5h53.371c9.57 0 18.616 3.857 24.817 10.581 6.632 7.191 9.662 16.489 8.532 26.181z" fill="#1d4ed8" data-original="#000000" class=""/><path d="m142.498 77.746c-3.009 2.847-3.14 7.594-.292 10.603s7.596 3.138 10.603.292c27.8-26.311 64.194-40.801 102.479-40.801 82.225 0 149.119 66.895 149.119 149.119v6.073h-103.802c-.139-.831-.302-1.654-.485-2.469.071-.406.118-.82.122-1.246l.388-47.794c.037-4.458-2.372-8.552-6.285-10.686-3.915-2.134-8.662-1.938-12.387.507l-38.992 25.594c-16.498 4.861-29.118 18.845-31.995 36.093h-104.803v-6.073c0-30.519 9.162-59.863 26.497-84.861 2.36-3.404 1.515-8.077-1.89-10.437-3.401-2.359-8.076-1.514-10.437 1.889-19.084 27.521-29.171 59.821-29.171 93.409v6.073h-3.271c-4.143 0-7.5 3.358-7.5 7.5s3.357 7.5 7.5 7.5h335.118c4.143 0 7.5-3.358 7.5-7.5s-3.357-7.5-7.5-7.5h-3.608v-6.073c0-90.496-73.624-164.119-164.119-164.119-42.136 0-82.193 15.949-112.789 44.907zm143.087 79.16-.156 19.219c-4.535-3.912-9.843-6.946-15.667-8.833zm-37.562 24.185c.078-.021.155-.04.232-.062 2.41-.615 4.933-.944 7.532-.944 14.201 0 26.161 9.773 29.51 22.947h-59.021c2.718-10.686 11.1-19.13 21.747-21.941z" fill="#1d4ed8" data-original="#000000" class=""/><path d="m348.773 150.886c.975 3.25 3.954 5.349 7.182 5.349.713 0 1.438-.103 2.156-.317l6.153-1.844c3.237 8.191 5.557 16.761 6.867 25.562.554 3.723 3.755 6.397 7.408 6.397.367 0 .739-.027 1.113-.083 4.098-.61 6.925-4.425 6.314-8.522-4.61-30.984-20.255-59.45-44.053-80.155-24.039-20.915-54.804-32.433-86.626-32.433s-62.587 11.518-86.626 32.433c-23.798 20.705-39.442 49.171-44.053 80.155-.61 4.097 2.217 7.913 6.314 8.522 4.082.609 7.912-2.217 8.521-6.314 1.31-8.801 3.63-17.371 6.867-25.562l6.153 1.844c.719.215 1.443.317 2.156.317 3.227 0 6.208-2.099 7.182-5.349 1.188-3.968-1.063-8.148-5.031-9.337l-3.981-1.193c6.594-11.896 15.268-22.675 25.718-31.766 2.931-2.55 5.979-4.937 9.123-7.167l3.526 4.676c1.474 1.956 3.72 2.985 5.994 2.985 1.572 0 3.157-.493 4.51-1.512 3.307-2.494 3.967-7.197 1.473-10.504l-2.682-3.557c14.592-7.751 30.72-12.357 47.337-13.427v5.663c0 4.142 3.357 7.5 7.5 7.5s7.5-3.358 7.5-7.5v-5.663c16.617 1.069 32.745 5.676 47.337 13.427l-2.682 3.557c-2.494 3.307-1.834 8.01 1.473 10.504 1.353 1.019 2.938 1.512 4.51 1.512 2.273 0 4.521-1.03 5.994-2.985l3.526-4.676c3.144 2.23 6.191 4.617 9.123 7.167 10.45 9.092 19.124 19.87 25.718 31.766l-3.981 1.193c-3.97 1.189-6.222 5.369-5.033 9.337z" fill="#1d4ed8" data-original="#000000" class=""/></g></g></svg>
