<?xml version="1.0" standalone="no"?>
<!DOCTYPE svg PUBLIC "-//W3C//DTD SVG 20010904//EN"
 "http://www.w3.org/TR/2001/REC-SVG-20010904/DTD/svg10.dtd">
<svg version="1.0" xmlns="http://www.w3.org/2000/svg"
 width="350.000000pt" height="350.000000pt" viewBox="0 0 350.000000 350.000000"
 preserveAspectRatio="xMidYMid meet">
<metadata>
Created by potrace 1.14, written by Peter Selinger 2001-2017
</metadata>
<g transform="translate(0.000000,350.000000) scale(0.100000,-0.100000)"
fill="#000000" stroke="none">
<path d="M0 1750 l0 -1750 1750 0 1750 0 0 1750 0 1750 -1750 0 -1750 0 0
-1750z m537 219 c54 -20 73 -48 73 -104 0 -38 -6 -60 -20 -78 l-21 -26 20 -20
c26 -26 35 -61 28 -117 -9 -87 -49 -104 -244 -104 l-133 0 0 230 0 230 134 0
c74 0 147 -5 163 -11z m305 -161 l3 -173 65 -2 c36 -1 77 -2 93 -2 26 -1 27
-3 27 -56 l0 -55 -162 2 -163 3 2 210 c1 116 2 218 3 228 0 14 10 17 65 17
l65 0 2 -172z m358 9 c0 -196 4 -207 80 -207 76 0 80 11 80 207 l0 163 55 0
56 0 -1 -172 c-1 -94 -6 -183 -12 -197 -12 -33 -45 -64 -58 -56 -6 4 -9 1 -8
-6 4 -18 -49 -30 -127 -28 -74 2 -97 9 -131 43 -41 41 -44 59 -44 240 l0 176
55 0 55 0 0 -163z m675 139 l30 -25 -32 -32 c-32 -33 -32 -33 -54 -13 -15 14
-36 19 -74 19 -81 0 -85 -7 -85 -149 0 -66 4 -127 9 -135 12 -19 88 -30 124
-18 26 9 30 17 40 79 4 25 1 27 -37 30 -38 3 -41 5 -44 36 l-3 33 88 -3 88 -3
1 -67 c2 -72 -20 -135 -45 -130 -7 1 -10 -2 -6 -8 3 -5 -9 -19 -27 -30 -47
-28 -169 -28 -216 0 -64 39 -73 68 -70 221 3 120 5 140 23 159 43 49 75 60
170 60 80 0 93 -3 120 -24z m463 -8 c4 -34 -12 -39 -128 -35 -47 2 -89 2 -95
0 -8 -2 -11 -74 -6 -123 1 -3 46 -4 102 -2 l100 3 -3 -33 -3 -33 -97 -3 -96
-3 -4 -64 c-3 -59 -1 -65 17 -66 11 0 64 0 118 1 l97 1 0 -35 0 -36 -155 0
-155 0 0 230 0 231 153 -3 152 -3 3 -27z m195 -5 c13 -21 59 -101 103 -178
l79 -139 3 177 2 177 30 0 30 0 -2 -227 -3 -228 -31 -3 c-30 -3 -34 1 -88 94
-30 53 -53 101 -49 107 3 5 1 7 -4 4 -7 -4 -27 24 -50 68 -21 41 -42 75 -46
75 -4 0 -5 -48 -2 -107 3 -60 2 -132 -3 -160 -5 -29 -5 -53 -1 -53 5 0 6 -7 2
-16 -3 -9 -15 -14 -32 -12 l-26 3 -3 228 -2 227 35 0 c29 0 38 -6 58 -37z
m427 -194 l0 -230 -22 3 c-23 3 -23 3 -26 231 l-3 227 26 0 25 0 0 -231z m180
145 c34 -48 64 -93 67 -101 10 -27 33 -7 100 87 58 81 93 116 93 95 0 -3 -35
-54 -78 -113 l-78 -108 43 -59 c24 -33 46 -70 49 -82 4 -13 10 -21 14 -18 8 5
50 -54 50 -69 0 -21 -25 6 -91 99 -41 57 -77 104 -80 105 -3 0 -36 -42 -72
-94 -69 -97 -93 -123 -104 -113 -9 10 69 107 80 100 6 -4 7 -1 2 7 -5 8 -1 18
10 27 11 7 15 13 11 13 -5 0 -3 7 4 15 7 8 16 12 21 9 5 -3 6 1 3 9 -3 8 2 20
11 27 8 7 15 16 15 21 0 5 -25 43 -55 84 -30 40 -55 78 -55 83 0 6 -7 13 -16
16 -9 4 -14 13 -10 22 3 8 2 12 -3 9 -5 -3 -12 -1 -16 5 -3 5 0 10 8 10 8 0
43 -39 77 -86z"/>
<path d="M394 1866 c-3 -8 -4 -25 -2 -38 2 -19 9 -23 38 -23 33 0 35 2 31 30
-1 17 -5 33 -8 38 -8 13 -53 8 -59 -7z"/>
<path d="M400 1700 c-6 -4 -10 -22 -8 -41 2 -29 7 -34 30 -37 22 -3 30 2 38
22 5 14 7 32 4 40 -6 16 -47 26 -64 16z"/>
</g>
</svg>
